<svg version="1.1" xmlns="http://www.w3.org/2000/svg" xmlns:xlink="http://www.w3.org/1999/xlink" width="52.72374" height="32.40007" viewBox="0,0,52.72374,32.40007"><g transform="translate(-232.61182,-163.79998)"><g data-paper-data="{&quot;isPaintingLayer&quot;:true}" fill-rule="nonzero" stroke-linecap="butt" stroke-linejoin="miter" stroke-miterlimit="10" stroke-dasharray="" stroke-dashoffset="0" style="mix-blend-mode: normal"><path d="M283.93672,186.92703h-4.89619c-0.77123,0 -1.39856,-0.62707 -1.39856,-1.39884v-11.05663c0,-0.77096 0.62733,-1.39856 1.39856,-1.39856h4.89646c0.77123,0 1.39857,0.6276 1.39857,1.39856v11.05664c0,0.77177 -0.62761,1.39884 -1.39884,1.39884z" fill="#ff6666" stroke="none" stroke-width="1"/><path d="M274.58897,195.20004h-37.65592c-1.83148,0 -3.32123,-1.48911 -3.32123,-3.32187v-23.75696c0,-1.83084 1.48975,-3.32123 3.32123,-3.32123h37.65655c1.83148,0 3.32123,1.49039 3.32123,3.32123v23.75697c0,1.83276 -1.49039,3.32187 -3.32187,3.32187z" fill="none" stroke="#ff6666" stroke-width="2"/><path d="M240.30953,193.14141h-0.27366c-1.58343,0 -2.87142,-1.28743 -2.87142,-2.87198v-20.5394c0,-1.58287 1.28799,-2.87141 2.87142,-2.87141h0.27421c1.58343,0 2.87142,1.28854 2.87142,2.87141v20.5394c0,1.58453 -1.28854,2.87198 -2.87197,2.87198z" fill="#ff6666" stroke="none" stroke-width="1"/></g></g></svg>