<svg version="1.1" xmlns="http://www.w3.org/2000/svg" xmlns:xlink="http://www.w3.org/1999/xlink" width="16.00071" height="16.00071" viewBox="0,0,16.00071,16.00071"><g transform="translate(-231.99964,-171.99964)"><g data-paper-data="{&quot;isPaintingLayer&quot;:true}" stroke-linecap="butt" stroke-linejoin="miter" stroke-miterlimit="10" stroke-dasharray="" stroke-dashoffset="0" style="mix-blend-mode: normal"><path d="M235.05,175.05c2.73381,-2.73381 7.16619,-2.73381 9.9,0c2.73381,2.73381 2.73381,7.16619 0,9.9c-2.73381,2.73381 -7.16619,2.73381 -9.9,0c-2.73381,-2.73381 -2.73381,-7.16619 0,-9.9z" fill="none" fill-rule="nonzero" stroke="#dbab0a" stroke-width="2" opacity="0.5"/><path d="M244,180c0,2.20914 -1.79086,4 -4,4c-2.20914,0 -4,-1.79086 -4,-4c0,-2.20914 1.79086,-4 4,-4c2.20914,0 4,1.79086 4,4z" fill="#dbab0a" fill-rule="evenodd" stroke="none" stroke-width="1"/><path d="M246,180c0,-3.31371 -2.68629,-6 -6,-6v-2c4.41828,0 8,3.58172 8,8z" fill="#dbab0a" fill-rule="nonzero" stroke="none" stroke-width="1"/></g></g></svg>