<svg version="1.1" xmlns="http://www.w3.org/2000/svg" xmlns:xlink="http://www.w3.org/1999/xlink" width="27.03945" height="27.46045" viewBox="0,0,27.03945,27.46045"><g transform="translate(-226.48027,-166.26978)"><g data-paper-data="{&quot;isPaintingLayer&quot;:true}" fill-rule="nonzero" stroke-linecap="butt" stroke-linejoin="miter" stroke-miterlimit="10" stroke-dasharray="" stroke-dashoffset="0" style="mix-blend-mode: normal"><path d="M253.51973,171.46078v17.07945c0,2.862 -2.327,5.19 -5.191,5.19h-16.65845c-2.861,0 -5.19,-2.328 -5.19,-5.19v-17.08045c0,-2.862 2.329,-5.19 5.19,-5.19h16.65845c2.864,0 5.191,2.329 5.191,5.191z" fill="#fcfeff" stroke="none" stroke-width="1"/><path d="M233.16653,179.93706c0,-3.73473 3.0276,-6.76233 6.76233,-6.76233c3.73473,0 6.76233,3.0276 6.76233,6.76233c0,3.73473 -3.0276,6.76233 -6.76233,6.76233c-3.73473,0 -6.76233,-3.0276 -6.76233,-6.76233z" fill="none" stroke="#000000" stroke-width="1.5"/><path d="M235.28261,174.63188l-0.06459,-3.07744l2.20389,-1.06663l2.26847,2.01081z" fill="#000000" stroke="none" stroke-width="1.5"/><path d="M240.58125,172.7318l2.26847,-2.01081l2.20389,1.06663l-0.06459,3.07744z" data-paper-data="{&quot;index&quot;:null}" fill="#000000" stroke="none" stroke-width="1.5"/><path d="M245.64554,175.66779l3.01864,0.27777l0.73064,2.33687l-2.288,2.0591z" data-paper-data="{&quot;index&quot;:null}" fill="#000000" stroke="none" stroke-width="1.5"/><path d="M232.89318,180.34153l-2.288,-2.0591l0.73064,-2.33687l3.01864,-0.27777z" data-paper-data="{&quot;index&quot;:null}" fill="#000000" stroke="none" stroke-width="1.5"/><path d="M235.83653,185.47099l-3.02006,0.59502l-1.43116,-1.9866l1.5889,-2.58162z" data-paper-data="{&quot;index&quot;:null}" fill="#000000" stroke="none" stroke-width="1.5"/><path d="M246.95615,181.2646l1.5889,2.58162l-1.43116,1.9866l-3.02006,-0.59502z" data-paper-data="{&quot;index&quot;:null}" fill="#000000" stroke="none" stroke-width="1.5"/><path d="M240.28879,187.32453l-2.09845,2.18766l-2.28292,-0.88492l-0.18447,-3.07259z" data-paper-data="{&quot;index&quot;:null}" fill="#000000" stroke="none" stroke-width="1.5"/><path d="M244.48611,185.20491l-0.18447,3.07258l-2.28292,0.88493l-2.09845,-2.18766z" data-paper-data="{&quot;index&quot;:null}" fill="#000000" stroke="none" stroke-width="1.5"/></g></g></svg>