<svg version="1.1" xmlns="http://www.w3.org/2000/svg" xmlns:xlink="http://www.w3.org/1999/xlink" width="27.03945" height="27.46045" viewBox="0,0,27.03945,27.46045"><g transform="translate(-226.79277,-166.26978)"><g data-paper-data="{&quot;isPaintingLayer&quot;:true}" fill-rule="nonzero" stroke-linejoin="miter" stroke-miterlimit="10" stroke-dasharray="" stroke-dashoffset="0" style="mix-blend-mode: normal"><path d="M253.83223,171.46078v17.07945c0,2.862 -2.327,5.19 -5.191,5.19h-16.65845c-2.861,0 -5.19,-2.328 -5.19,-5.19v-17.08045c0,-2.862 2.329,-5.19 5.19,-5.19h16.65845c2.864,0 5.191,2.329 5.191,5.191z" fill="#fcfeff" stroke="none" stroke-width="1" stroke-linecap="butt"/><g fill="none" stroke="#000000" stroke-width="1.5"><g><path d="M235.05444,172.28c0,2.00269 -1.62972,3.63171 -3.63171,3.63171v8.17659c2.00199,0 3.63171,1.62902 3.63171,3.63171" data-paper-data="{&quot;index&quot;:null}" stroke-linecap="butt"/><path d="M235.11916,187.21618h2.97394v-14.69477h-2.97394" stroke-linecap="round"/></g><path d="M240.43551,174.51803c2.42363,2.42363 2.50299,8.59538 0.12063,10.97774" stroke-linecap="butt"/><path d="M244.28414,175.91754c1.87663,1.87663 1.93808,6.65544 0.09341,8.50012" stroke-linecap="butt"/><path d="M247.52049,176.96716c1.37454,1.37454 1.41955,4.87479 0.06842,6.22593" stroke-linecap="butt"/></g></g></g></svg>